<svg width="239" height="106" viewBox="0 0 239 106" fill="none" xmlns="http://www.w3.org/2000/svg">
<path fill-rule="evenodd" clip-rule="evenodd" d="M132.326 67.4974C132.343 70.6529 134.721 72.2309 139.458 72.2309C140.458 72.2309 141.361 72.1171 142.169 71.8889C142.976 71.6608 143.814 71.214 144.682 70.5481C145.551 69.8822 146.226 68.7864 146.709 67.2608C147.191 65.7357 147.432 63.8422 147.432 61.5808C147.432 58.0923 146.766 55.5594 145.432 53.9813C144.099 52.4039 141.94 51.6146 138.958 51.6146C136.73 51.6146 134.519 52.0619 132.326 52.956V67.4974ZM128.424 67.2794V38.1323H132.326V49.0467C134.484 48.316 136.695 47.9498 138.958 47.9498C140.189 47.9498 141.347 48.0557 142.429 48.267C143.51 48.4782 144.61 48.8923 145.727 49.5087C146.843 50.125 147.807 50.9177 148.616 51.8861C149.425 52.8546 150.081 54.1706 150.582 55.8354C151.083 57.4996 151.334 59.4151 151.334 61.5808C151.334 63.9492 151.057 66.0236 150.503 67.8044C149.948 69.5847 149.267 70.9661 148.458 71.9481C147.648 72.9306 146.676 73.7289 145.542 74.343C144.406 74.9566 143.36 75.3515 142.401 75.5267C141.442 75.7019 140.461 75.7898 139.458 75.7898C137.505 75.7898 135.807 75.5481 134.363 75.0653C132.921 74.5825 131.839 74.0247 131.117 73.3926C130.395 72.7605 129.81 72.0044 129.361 71.1267C128.912 70.2484 128.645 69.5233 128.557 68.9526C128.468 68.3819 128.424 67.8242 128.424 67.2794ZM52.1348 73.9182V69.858C54.1911 71.2996 56.4058 72.0202 58.7787 72.0202C61.221 72.0202 62.9838 71.418 64.0643 70.214C65.1455 69.0101 65.6857 67.0371 65.6857 64.2957V39.3554H69.5877V64.6118C69.5877 66.8089 69.2801 68.685 68.6649 70.2405C68.0491 71.796 67.2103 72.9515 66.1472 73.707C65.0835 74.463 63.9939 74.9988 62.8779 75.3154C61.7618 75.6315 60.5624 75.7898 59.2796 75.7898C56.6959 75.7898 54.3139 75.1661 52.1348 73.9182ZM77.3765 64.0315V48.4247H81.2784V64.2078C81.2784 66.9436 81.8745 68.947 83.0677 70.2185C84.261 71.4901 86.1291 72.1256 88.6734 72.1256C91.1821 72.1256 93.0412 71.4901 94.2525 70.2185C95.4627 68.947 96.0683 66.9436 96.0683 64.2078V48.4247H99.9697V64.0315C99.9697 67.7751 98.986 70.6715 97.0187 72.7182C95.0514 74.7661 92.2694 75.7898 88.6734 75.7898C85.0762 75.7898 82.2942 74.7661 80.3269 72.7182C78.3596 70.6715 77.3765 67.7751 77.3765 64.0315ZM107.737 50.2315C106.163 51.752 105.378 53.5875 105.378 55.738C105.378 57.4647 105.874 58.8613 106.867 59.9273C107.86 60.9932 109.068 61.7509 110.492 62.2005C111.916 62.6501 113.339 63.0642 114.763 63.4427C116.186 63.8219 117.39 64.3904 118.375 65.1475C119.358 65.9058 119.851 66.9537 119.851 68.2929C119.851 70.778 117.803 72.0202 113.708 72.0202C110.966 72.0202 108.304 71.227 105.72 69.6411V73.7599C108.163 75.1137 110.878 75.7898 113.866 75.7898C116.96 75.7898 119.38 75.1261 121.13 73.7971C122.878 72.4681 123.753 70.6337 123.753 68.2929C123.753 66.3374 123.256 64.7295 122.263 63.4692C121.27 62.2095 120.062 61.3154 118.638 60.7864C117.215 60.258 115.791 59.8044 114.367 59.4258C112.944 59.0467 111.74 58.5706 110.756 57.9982C109.771 57.4258 109.28 56.672 109.28 55.738C109.28 52.9892 111.309 51.6146 115.369 51.6146C117.637 51.6146 119.798 52.232 121.855 53.4647V49.5875C119.552 48.4957 117.25 47.9498 114.947 47.9498C111.713 47.9498 109.309 48.7104 107.737 50.2315ZM157.309 50.5498V75.3678H161.21V53.0675C164.382 52.205 167.441 51.7385 170.385 51.6675V48.0027C165.727 48.0027 161.369 48.8518 157.309 50.5498ZM176.44 67.0901C176.44 70.4473 178.879 72.1256 183.756 72.1256H183.835C188.606 72.1256 190.993 70.4996 190.993 67.2473V62.0805C189.8 61.8698 188.203 61.7644 186.204 61.7644C179.694 61.7644 176.44 63.5396 176.44 67.0901ZM172.539 67.0901C172.539 65.8788 172.762 64.7932 173.211 63.8332C173.659 62.8737 174.208 62.0946 174.858 61.498C175.508 60.9013 176.335 60.3904 177.336 59.9673C178.339 59.543 179.225 59.2315 179.999 59.0326C180.773 58.8337 181.691 58.6822 182.754 58.5785C183.817 58.4743 184.573 58.414 185.022 58.396C185.469 58.3791 186.001 58.3701 186.616 58.3701L190.94 58.6275C190.94 56.1819 190.278 54.4366 188.953 53.392C187.629 52.3481 185.668 51.8253 183.072 51.8253C180.155 51.8253 177.529 52.2563 175.193 53.1171V49.347C177.845 48.4163 180.542 47.9498 183.282 47.9498C187.056 47.9498 189.935 48.9036 191.918 50.8106C193.903 52.7177 194.895 55.5075 194.895 59.1808V67.2743C194.895 68.9971 194.495 70.4692 193.696 71.6906C192.898 72.912 191.871 73.7954 190.616 74.3396C189.36 74.885 188.184 75.2625 187.086 75.4732C185.989 75.6844 184.905 75.7898 183.835 75.7898C183.007 75.7898 182.158 75.7368 181.287 75.6315C180.416 75.5256 179.431 75.2833 178.331 74.9042C177.232 74.525 176.277 74.0405 175.468 73.4495C174.659 72.8591 173.968 72.0129 173.396 70.9109C172.824 69.8095 172.539 68.5357 172.539 67.0901ZM201.892 50.2315C200.319 51.752 199.533 53.5875 199.533 55.738C199.533 57.4647 200.029 58.8613 201.022 59.9273C202.015 60.9932 203.224 61.7509 204.647 62.2005C206.071 62.6501 207.495 63.0642 208.918 63.4427C210.342 63.8219 211.545 64.3904 212.53 65.1475C213.514 65.9058 214.006 66.9537 214.006 68.2929C214.006 70.778 211.959 72.0202 207.864 72.0202C205.122 72.0202 202.459 71.227 199.876 69.6411V73.7599C202.318 75.1137 205.034 75.7898 208.022 75.7898C211.115 75.7898 213.536 75.1261 215.285 73.7971C217.033 72.4681 217.908 70.6337 217.908 68.2929C217.908 66.3374 217.411 64.7295 216.419 63.4692C215.425 62.2095 214.217 61.3154 212.794 60.7864C211.37 60.258 209.947 59.8044 208.523 59.4258C207.099 59.0467 205.895 58.5706 204.911 57.9982C203.927 57.4258 203.435 56.672 203.435 55.738C203.435 52.9892 205.464 51.6146 209.525 51.6146C211.792 51.6146 213.954 52.232 216.01 53.4647V49.5875C213.707 48.4957 211.405 47.9498 209.103 47.9498C205.869 47.9498 203.465 48.7104 201.892 50.2315ZM223.193 75.3678H227.094V48.4247H223.193V75.3678ZM222.982 43.6794H227.305V39.3554H222.982V43.6794ZM238.8 75.3678H234.898V38.1695H238.8V75.3678Z" fill="#595B63"/>
<path fill-rule="evenodd" clip-rule="evenodd" d="M3.79092 74.8246V74.824C0.657397 73.0217 -0.416406 69.0285 1.39261 65.9063L16.6816 39.5215C18.4912 36.3986 22.4985 35.3288 25.6326 37.1316C28.7667 38.9344 29.8405 42.9277 28.0309 46.0499L12.7419 72.4347C10.9329 75.557 6.925 76.6268 3.79092 74.8246" fill="#FFCE00"/>
<path fill-rule="evenodd" clip-rule="evenodd" d="M40.9217 74.824C37.7876 76.6263 33.7803 75.557 31.9707 72.4347L16.6817 46.0499C14.8727 42.9277 15.9465 38.9344 19.08 37.1316C22.2141 35.3288 26.2214 36.3986 28.031 39.5215L43.32 65.9063C45.1296 69.0285 44.0558 73.0217 40.9217 74.824Z" fill="#378CC8"/>
<path fill-rule="evenodd" clip-rule="evenodd" d="M27.7628 39.1003C27.7195 39.0372 27.6789 38.973 27.6338 38.9116C27.555 38.8051 27.4705 38.7048 27.3871 38.6045C27.3302 38.5369 27.2766 38.4676 27.2175 38.4023C27.1431 38.3206 27.0637 38.2445 26.9859 38.1673C26.9088 38.0902 26.8333 38.0118 26.7516 37.938C26.6851 37.8783 26.6152 37.8248 26.5471 37.7679C26.4468 37.6851 26.3471 37.6011 26.2406 37.5234C26.1786 37.4778 26.1133 37.4372 26.0496 37.3938C25.933 37.3144 25.8152 37.2361 25.6924 37.1634C25.6209 37.1217 25.5471 37.084 25.4738 37.0445C25.3589 36.982 25.2434 36.9217 25.1262 36.8671C25.0333 36.8237 24.9386 36.7854 24.844 36.7465C24.7459 36.7059 24.6474 36.6665 24.5476 36.631C24.4361 36.5916 24.3234 36.5572 24.2102 36.5234C24.1234 36.498 24.0366 36.4732 23.9493 36.4513C23.8288 36.4209 23.7065 36.3955 23.5843 36.3718C23.4986 36.3561 23.413 36.3403 23.3268 36.3273C23.2079 36.3093 23.0885 36.2963 22.9685 36.2851C22.8733 36.2761 22.7781 36.2682 22.6834 36.2637C22.5752 36.258 22.4665 36.2563 22.3578 36.2563C22.249 36.2563 22.1403 36.258 22.0321 36.2637C21.9369 36.2682 21.8423 36.2761 21.7471 36.2851C21.6271 36.2963 21.5076 36.3093 21.3888 36.3273C21.3026 36.3403 21.2169 36.3561 21.1313 36.3718C21.009 36.3955 20.8868 36.4209 20.7657 36.4513C20.6789 36.4732 20.5921 36.498 20.5054 36.5234C20.3921 36.5572 20.2789 36.5916 20.1679 36.631C20.0682 36.6665 19.9696 36.7059 19.871 36.7465C19.7764 36.7854 19.6823 36.8237 19.5893 36.8671C19.4721 36.9217 19.3566 36.982 19.2412 37.0445C19.1685 37.084 19.0947 37.1217 19.0231 37.1634C18.8997 37.2361 18.782 37.3149 18.6654 37.3938C18.6017 37.4372 18.5369 37.4778 18.475 37.5234C18.3685 37.6011 18.2682 37.6851 18.1679 37.7685C18.0997 37.8248 18.0299 37.8789 17.964 37.938C17.8823 38.0118 17.8068 38.0902 17.729 38.1673C17.6513 38.2451 17.5719 38.3206 17.4981 38.4023C17.4389 38.4676 17.3848 38.5369 17.3285 38.6045C17.2445 38.7048 17.16 38.8051 17.0817 38.9116C17.0366 38.973 16.9955 39.0372 16.9527 39.1003C16.8727 39.2169 16.7938 39.3347 16.7206 39.4575C15.5583 41.4197 15.4581 43.9302 16.6834 46.044L22.3578 55.8366L28.0321 46.044C29.2569 43.9302 29.1566 41.4197 27.995 39.458C27.9217 39.3347 27.8423 39.2169 27.7628 39.1003" fill="#7AB441"/>
</svg>
